<?xml version='1.0' encoding='utf-8'?>
<!DOCTYPE svg PUBLIC '-//W3C//DTD SVG 1.1//EN' 'http://www.w3.org/Graphics/SVG/1.1/DTD/svg11.dtd'>
<svg version="1.1" xmlns="http://www.w3.org/2000/svg" viewBox="0 0 512 512" xmlns:xlink="http://www.w3.org/1999/xlink" enable-background="new 0 0 512 512">
  <g>
    <path d="m480.6,158.7c11.3,0 20.4-9.1 20.4-20.4v-106.9c0-11.3-9.1-20.4-20.4-20.4h-107.1c-11.3,0-20.4,9.1-20.4,20.4v33h-194.2v-33c0-11.3-9.1-20.4-20.4-20.4h-107.1c-11.3-7.10543e-15-20.4,9.1-20.4,20.4v106.9c0,11.3 9.1,20.4 20.4,20.4h33.1v194.6h-33.1c-11.3,0-20.4,9.1-20.4,20.4v106.9c0,11.3 9.1,20.4 20.4,20.4h107.1c11.3,0 20.4-9.1 20.4-20.4v-33h194.2v33c0,11.3 9.1,20.4 20.4,20.4h107.1c11.3,0 20.4-9.1 20.4-20.4v-106.9c0-11.3-9.1-20.4-20.4-20.4h-33.1v-194.6h33.1zm-86.7-106.9h66.2v66h-66.2v-66zm-342.1,0h66.2v66h-66.2v-66zm66.3,408.4h-66.3v-66h66.2v66zm342.2,0h-66.2v-66h66.2v66zm-53.6-106.9h-33.1c-11.3,0-20.4,9.1-20.4,20.4v33h-194.2v-33c0-11.3-9.1-20.4-20.4-20.4h-33.1v-194.6h33.1c11.3,0 20.4-9.1 20.4-20.4v-33h194.2v33c0,11.3 9.1,20.4 20.4,20.4h33.1v194.6z"/>
  </g>
</svg>
